<svg version="1.1" id="Layer_1" xmlns="http://www.w3.org/2000/svg" xmlns:xlink="http://www.w3.org/1999/xlink" x="0px" y="0px"
	 width="100%" viewBox="0 0 3109 3423" enable-background="new 0 0 3109 3423" xml:space="preserve">
<path fill="#FF8040" opacity="1.000000" stroke="none" 
	d="
M1556.000000,2.000000 
	C1556.888916,2.000000 1557.777832,2.000000 1559.877197,2.553668 
	C1580.472412,7.167042 1599.912231,10.982153 1619.228027,15.346172 
	C1645.433960,21.266834 1671.508057,27.769360 1697.708984,33.712795 
	C1715.762573,37.808128 1733.985107,41.157547 1752.043213,45.234703 
	C1780.837646,51.735905 1809.578003,58.480740 1838.304932,65.275528 
	C1882.650757,75.764694 1927.057617,86.014893 1971.276978,97.016342 
	C2098.482422,128.664215 2225.687500,160.321777 2352.737305,192.587509 
	C2447.216553,216.581543 2541.481934,241.421982 2635.789307,266.089233 
	C2701.781250,283.350189 2767.744141,300.727600 2833.608643,318.467224 
	C2906.511963,338.102692 2979.298584,358.172089 3052.111084,378.143158 
	C3067.098633,382.253937 3081.976318,386.764832 3096.895264,391.088562 
	C3097.438477,393.664398 3098.020752,395.577118 3098.225342,397.529419 
	C3100.369629,418.008423 3102.699951,438.472229 3104.489014,458.983002 
	C3106.479248,481.797974 3108.450439,504.634399 3109.519775,527.504028 
	C3110.484131,548.123535 3110.165283,568.801697 3110.556885,589.451172 
	C3110.611084,592.308899 3111.498291,595.150757 3112.000000,598.000000 
	C3112.000000,647.375122 3112.000000,696.750244 3111.444336,747.684448 
	C3110.769775,750.232544 3110.551514,751.221069 3110.546387,752.210632 
	C3110.321289,795.452209 3109.756836,838.677185 3106.390381,881.823975 
	C3104.789551,902.335754 3103.878906,922.900818 3102.348877,943.418823 
	C3099.806152,977.517456 3097.327637,1011.625916 3094.239502,1045.677490 
	C3091.361328,1077.416260 3088.071777,1109.127075 3084.340820,1140.776978 
	C3078.590820,1189.556519 3072.715820,1238.328125 3066.131592,1287.000000 
	C3060.390137,1329.442505 3054.247559,1371.852661 3047.112305,1414.079468 
	C3036.484375,1476.976685 3025.468506,1539.822998 3013.457031,1602.468384 
	C2995.553223,1695.843994 2975.171875,1788.704956 2953.327881,1881.246582 
	C2938.734131,1943.072510 2922.650146,2004.476562 2903.011230,2064.903076 
	C2877.480713,2143.456055 2847.360107,2220.199951 2812.517578,2295.118896 
	C2783.155518,2358.253418 2750.702148,2419.727051 2715.063965,2479.512451 
	C2673.450684,2549.321533 2627.844482,2616.429688 2578.515137,2681.043457 
	C2529.623535,2745.083984 2477.193359,2806.082275 2421.515381,2864.251953 
	C2396.209229,2890.690674 2369.982422,2916.295898 2343.345947,2941.401367 
	C2315.039307,2968.081299 2286.322021,2994.385986 2256.782959,3019.685791 
	C2182.129883,3083.624756 2103.509521,3142.326660 2021.126465,3196.002686 
	C1958.339111,3236.910889 1893.728149,3274.665039 1827.189331,3309.082031 
	C1743.190918,3352.530273 1656.598633,3390.070801 1567.458496,3421.708496 
	C1564.799683,3422.652344 1562.478638,3424.548340 1560.000000,3426.000000 
	C1559.111084,3426.000000 1558.222168,3426.000000 1556.755005,3425.505371 
	C1556.100830,3424.684814 1556.025024,3424.358643 1556.406250,3423.337891 
	C1557.245361,3417.366211 1557.961792,3412.089355 1557.962280,3406.812256 
	C1558.013062,2867.678467 1558.009644,2328.544678 1558.008301,1789.410767 
	C1558.008179,1786.078735 1558.260742,1782.716187 1557.891235,1779.424438 
	C1557.604980,1776.873535 1556.530029,1774.410889 1556.008057,1771.262451 
	C1605.808716,1710.001221 1655.404541,1649.384399 1705.018311,1588.782227 
	C1706.275513,1587.246460 1707.714722,1585.857056 1709.109985,1584.439575 
	C1709.298462,1584.248169 1709.725586,1584.258179 1710.046021,1584.239502 
	C1710.363159,1584.221069 1710.685059,1584.284424 1711.685059,1584.370117 
	C1816.514648,1716.595337 1921.635864,1849.188477 2027.510864,1982.732300 
	C2260.718018,1715.743286 2493.244385,1449.533447 2726.365479,1182.643066 
	C2750.085938,1201.644531 2773.072266,1220.057739 2797.296875,1239.462891 
	C2799.736328,1225.997192 2802.138184,1214.475830 2803.858643,1202.853760 
	C2806.830811,1182.780518 2809.063232,1162.595337 2812.186523,1142.547485 
	C2816.125488,1117.262939 2820.884521,1092.106079 2824.836426,1066.823242 
	C2827.646729,1048.843750 2829.409180,1030.701172 2832.189697,1012.716431 
	C2834.775146,995.992126 2838.298584,979.414429 2840.998779,962.705872 
	C2842.488281,953.490417 2843.133789,944.138672 2844.328369,933.321167 
	C2747.275635,974.188171 2652.025635,1014.296143 2555.308838,1055.021606 
	C2582.364502,1075.163452 2608.153564,1094.362427 2634.580078,1114.036011 
	C2432.613770,1331.871338 2231.499756,1548.787231 2029.626465,1766.522095 
	C1923.186401,1632.273071 1817.518066,1498.997314 1711.460815,1365.231201 
	C1708.458984,1368.712891 1706.239258,1371.172607 1704.144165,1373.734253 
	C1658.779785,1429.201294 1613.437012,1484.686035 1568.053833,1540.137573 
	C1565.756714,1542.944336 1563.134277,1545.484741 1560.104004,1547.508301 
	C1559.033325,1542.978149 1558.103394,1539.091309 1558.078979,1535.198853 
	C1557.937500,1512.640381 1558.102661,1490.079712 1557.919189,1467.521729 
	C1557.887939,1463.674805 1556.673584,1459.837402 1556.218018,1455.358398 
	C1607.845703,1391.922974 1659.261108,1329.124756 1711.215698,1265.667969 
	C1726.806152,1285.069458 1741.598755,1303.478149 1756.541992,1322.348389 
	C1757.449219,1323.352295 1758.205933,1323.894531 1758.962524,1324.436768 
	C1759.160400,1323.588013 1759.358398,1322.739380 1759.658203,1320.965332 
	C1759.783447,1162.959839 1759.809082,1005.879761 1759.807983,848.799622 
	C1759.807861,846.484863 1759.473999,844.170044 1759.441406,841.091125 
	C1759.544067,838.256287 1759.501099,836.185669 1759.556885,833.579834 
	C1759.161133,832.585022 1758.666504,832.125366 1757.244995,831.445190 
	C1751.998657,831.167480 1747.679321,831.062622 1743.359985,831.060486 
	C1681.538696,831.030151 1619.717529,831.013611 1557.896729,830.119446 
	C1557.934692,763.631958 1558.006104,698.018738 1558.002808,632.405579 
	C1557.995850,496.515747 1557.949219,360.625916 1558.770996,224.552750 
	C1593.563965,223.839096 1625.595459,193.977066 1622.099731,152.898087 
	C1619.579834,123.286026 1595.494507,98.412521 1566.471802,95.912468 
	C1563.593384,95.664490 1560.793091,94.508194 1557.969482,92.850449 
	C1557.991333,66.634895 1558.111572,41.341427 1557.897339,16.050793 
	C1557.862305,11.913735 1556.352295,7.789177 1555.586670,3.228002 
	C1555.649536,2.797161 1556.000000,2.000000 1556.000000,2.000000 
M1843.745850,1427.525513 
	C1842.809326,1432.919556 1846.627075,1436.132080 1849.466675,1439.716064 
	C1907.404297,1512.842651 1965.369141,1585.947754 2023.345581,1659.043579 
	C2025.166748,1661.339600 2027.169556,1663.491455 2029.619751,1666.326172 
	C2032.298340,1663.649536 2034.675903,1661.421631 2036.888184,1659.040527 
	C2061.381348,1632.677612 2085.691406,1606.141724 2110.445557,1580.026733 
	C2115.917480,1574.254150 2117.987061,1568.431641 2117.982666,1560.541992 
	C2117.806885,1244.303101 2117.834717,928.063965 2117.810303,611.824890 
	C2117.810059,607.841064 2117.472412,603.857300 2117.589355,598.134949 
	C2117.589355,594.622498 2117.589355,591.110046 2117.589355,587.227905 
	C2025.658081,587.227905 1935.209473,587.227905 1843.667725,587.227905 
	C1843.667725,591.753052 1843.667725,595.673706 1843.667847,599.594421 
	C1843.668701,871.075500 1843.667603,1142.556641 1843.687744,1414.037720 
	C1843.687988,1418.025879 1843.949219,1422.013916 1843.745850,1427.525513 
M1790.138672,278.956421 
	C1799.563599,285.611053 1809.955933,289.528503 1821.491333,290.708679 
	C1848.828857,293.505554 1874.923218,279.047394 1886.845825,254.257889 
	C1898.919312,229.154236 1893.724731,199.365387 1873.848389,179.723557 
	C1854.373901,160.478836 1824.624146,155.370224 1800.052002,167.269531 
	C1754.644409,189.258621 1751.088867,250.008606 1790.138672,278.956421 
z"/>
<path fill="#FFFFFF" opacity="1.000000" stroke="none" 
	d="
M1560.937256,3426.000000 
	C1562.478638,3424.548340 1564.799683,3422.652344 1567.458496,3421.708496 
	C1656.598633,3390.070801 1743.190918,3352.530273 1827.189331,3309.082031 
	C1893.728149,3274.665039 1958.339111,3236.910889 2021.126465,3196.002686 
	C2103.509521,3142.326660 2182.129883,3083.624756 2256.782959,3019.685791 
	C2286.322021,2994.385986 2315.039307,2968.081299 2343.345947,2941.401367 
	C2369.982422,2916.295898 2396.209229,2890.690674 2421.515381,2864.251953 
	C2477.193359,2806.082275 2529.623535,2745.083984 2578.515137,2681.043457 
	C2627.844482,2616.429688 2673.450684,2549.321533 2715.063965,2479.512451 
	C2750.702148,2419.727051 2783.155518,2358.253418 2812.517578,2295.118896 
	C2847.360107,2220.199951 2877.480713,2143.456055 2903.011230,2064.903076 
	C2922.650146,2004.476562 2938.734131,1943.072510 2953.327881,1881.246582 
	C2975.171875,1788.704956 2995.553223,1695.843994 3013.457031,1602.468384 
	C3025.468506,1539.822998 3036.484375,1476.976685 3047.112305,1414.079468 
	C3054.247559,1371.852661 3060.390137,1329.442505 3066.131592,1287.000000 
	C3072.715820,1238.328125 3078.590820,1189.556519 3084.340820,1140.776978 
	C3088.071777,1109.127075 3091.361328,1077.416260 3094.239502,1045.677490 
	C3097.327637,1011.625916 3099.806152,977.517456 3102.348877,943.418823 
	C3103.878906,922.900818 3104.789551,902.335754 3106.390381,881.823975 
	C3109.756836,838.677185 3110.321289,795.452209 3110.546387,752.210632 
	C3110.551514,751.221069 3110.769775,750.232544 3111.444336,748.621826 
	C3112.000000,1640.482544 3112.000000,2532.965088 3112.000000,3426.000000 
	C2595.291748,3426.000000 2078.583252,3426.000000 1560.937256,3426.000000 
z"/>
<path fill="#FFFFFF" opacity="1.000000" stroke="none" 
	d="
M1555.949341,3424.032471 
	C1556.025024,3424.358643 1556.100830,3424.684814 1556.088379,3425.505371 
	C1038.100342,3426.000000 520.200562,3426.000000 2.000000,3426.000000 
	C2.000000,2541.938232 2.000000,1657.876343 2.582904,772.928589 
	C3.878402,772.351074 4.590997,772.659485 5.415449,773.837524 
	C5.744434,784.631287 5.803471,794.561829 6.209391,804.478149 
	C7.275750,830.528809 8.387964,856.578613 9.714542,882.616882 
	C10.112235,890.422913 11.275908,898.189941 12.010473,906.828491 
	C12.039580,911.103394 12.146876,914.524658 12.102743,918.809082 
	C12.579112,925.133301 13.206909,930.594360 13.838768,936.956543 
	C13.953149,941.849854 13.921723,945.851746 14.196788,949.832520 
	C15.982081,975.668884 17.902292,1001.496033 19.642881,1027.335327 
	C21.070602,1048.529907 22.190781,1069.745361 23.663879,1090.936646 
	C25.550306,1118.073608 27.426317,1145.214722 29.726971,1172.318481 
	C32.105518,1200.340088 34.659004,1228.355103 37.727909,1256.307983 
	C42.072334,1295.879150 46.394344,1335.467529 51.757011,1374.908325 
	C58.541172,1424.803711 65.542732,1474.697144 73.963531,1524.334717 
	C82.456146,1574.395752 92.276802,1624.249756 102.464478,1674.000122 
	C115.726898,1738.765625 131.665817,1802.911743 149.271515,1866.643311 
	C168.844162,1937.495117 190.379822,2007.744019 215.767960,2076.722412 
	C234.255936,2126.953369 253.478882,2176.943848 273.709961,2226.495850 
	C298.637299,2287.550537 327.759369,2346.692871 359.016876,2404.765625 
	C388.351105,2459.265137 419.087463,2512.960205 452.552917,2565.036621 
	C488.891846,2621.584229 527.604980,2676.445801 569.015625,2729.445068 
	C618.021118,2792.165039 670.530884,2851.775146 726.552795,2908.224854 
	C754.668030,2936.554688 784.251404,2963.451660 813.627686,2990.500488 
	C851.820618,3025.666992 892.106201,3058.381348 933.336731,3089.899658 
	C1002.141785,3142.496582 1074.000854,3190.567627 1148.666382,3234.467773 
	C1217.816040,3275.125244 1289.056885,3311.746582 1361.934204,3345.184326 
	C1425.434448,3374.319336 1489.985229,3400.929932 1555.949341,3424.032471 
z"/>
<path fill="#FFFFFF" opacity="1.000000" stroke="none" 
	d="
M1555.077515,2.000000 
	C1556.000000,2.000000 1555.649536,2.797161 1554.752075,3.243606 
	C1541.964844,6.115087 1530.075073,8.540123 1517.628540,10.971665 
	C1516.068115,11.401785 1515.064575,11.825397 1513.396729,12.221933 
	C1511.869995,12.357373 1511.007202,12.519891 1509.572998,12.664675 
	C1508.010620,13.138148 1507.019775,13.629354 1505.369873,14.109777 
	C1503.844482,14.232547 1502.978271,14.366100 1501.307739,14.458012 
	C1471.925415,20.842859 1443.293213,27.038481 1414.779175,33.736969 
	C1307.931274,58.837730 1201.043213,83.775452 1094.325928,109.421486 
	C1023.171936,126.521027 952.243225,144.565964 881.284546,162.468369 
	C816.784546,178.741302 752.325745,195.184143 687.945862,211.925278 
	C581.733826,239.544342 475.523163,267.174774 369.456787,295.345978 
	C279.805267,319.157379 190.353912,343.722809 100.833443,368.026245 
	C94.482307,369.750488 88.291519,372.065338 81.364746,374.103577 
	C79.849892,374.294739 78.996460,374.487823 77.572678,374.663147 
	C76.009666,375.129456 75.017021,375.613586 73.358276,376.118042 
	C71.855743,376.414337 71.019318,376.690308 69.532585,376.996887 
	C66.894714,377.799438 64.907150,378.571411 62.171379,379.350342 
	C48.914650,382.831635 36.431267,386.401245 23.880039,389.713837 
	C20.712973,390.549683 18.281498,391.458038 18.032492,395.242706 
	C17.444918,404.173218 16.728035,413.095215 15.575677,422.676575 
	C13.495541,440.121063 11.655971,456.890930 10.381712,473.703613 
	C9.155803,489.878326 8.429143,506.093201 7.635800,522.297852 
	C6.293129,549.722900 5.114622,577.156006 3.738033,604.579285 
	C3.579339,607.740601 2.599257,610.860779 2.000003,614.000000 
	C2.000000,410.079590 2.000000,206.159195 2.000000,2.000000 
	C519.385010,2.000000 1036.770020,2.000000 1555.077515,2.000000 
z"/>
<path fill="#FFFFFF" opacity="1.000000" stroke="none" 
	d="
M3112.000000,597.062683 
	C3111.498291,595.150757 3110.611084,592.308899 3110.556885,589.451172 
	C3110.165283,568.801697 3110.484131,548.123535 3109.519775,527.504028 
	C3108.450439,504.634399 3106.479248,481.797974 3104.489014,458.983002 
	C3102.699951,438.472229 3100.369629,418.008423 3098.225342,397.529419 
	C3098.020752,395.577118 3097.438477,393.664398 3096.895264,391.088562 
	C3081.976318,386.764832 3067.098633,382.253937 3052.111084,378.143158 
	C2979.298584,358.172089 2906.511963,338.102692 2833.608643,318.467224 
	C2767.744141,300.727600 2701.781250,283.350189 2635.789307,266.089233 
	C2541.481934,241.421982 2447.216553,216.581543 2352.737305,192.587509 
	C2225.687500,160.321777 2098.482422,128.664215 1971.276978,97.016342 
	C1927.057617,86.014893 1882.650757,75.764694 1838.304932,65.275528 
	C1809.578003,58.480740 1780.837646,51.735905 1752.043213,45.234703 
	C1733.985107,41.157547 1715.762573,37.808128 1697.708984,33.712795 
	C1671.508057,27.769360 1645.433960,21.266834 1619.228027,15.346172 
	C1599.912231,10.982153 1580.472412,7.167042 1560.543945,2.553668 
	C2077.122803,2.000000 2594.245361,2.000000 3112.000000,2.000000 
	C3112.000000,200.041336 3112.000000,398.083344 3112.000000,597.062683 
z"/>
<path fill="#FF8142" opacity="1.000000" stroke="none" 
	d="
M2.000003,614.937317 
	C2.599257,610.860779 3.579339,607.740601 3.738033,604.579285 
	C5.114622,577.156006 6.293129,549.722900 7.635800,522.297852 
	C8.429143,506.093201 9.155803,489.878326 10.381712,473.703613 
	C11.655971,456.890930 13.495541,440.121063 16.006247,423.374298 
	C17.265697,426.701508 18.019974,430.006134 17.867832,433.268555 
	C17.465670,441.892181 16.469851,450.488251 16.074640,459.112030 
	C15.283326,476.379028 14.625940,493.653961 14.112028,510.931519 
	C13.330809,537.195923 12.211082,563.463806 12.128959,589.733032 
	C11.871759,672.004639 12.011573,754.277527 12.084684,836.549866 
	C12.089095,841.513306 13.134785,846.471680 13.212929,851.440002 
	C13.479778,868.406006 13.563324,885.375305 13.594893,902.343567 
	C13.597142,903.553040 12.613749,904.764343 12.088659,905.974792 
	C11.275908,898.189941 10.112235,890.422913 9.714542,882.616882 
	C8.387964,856.578613 7.275750,830.528809 6.209391,804.478149 
	C5.803471,794.561829 5.744434,784.631287 5.577119,772.842651 
	C5.742379,760.013550 5.927363,749.049072 5.930070,738.084595 
	C5.930862,734.876526 6.451340,731.158081 2.000000,730.000000 
	C2.000000,691.958191 2.000000,653.916443 2.000003,614.937317 
z"/>
<path fill="#FFA070" opacity="1.000000" stroke="none" 
	d="
M2.000000,730.937073 
	C6.451340,731.158081 5.930862,734.876526 5.930070,738.084595 
	C5.927363,749.049072 5.742379,760.013550 5.465262,771.972961 
	C4.590997,772.659485 3.878402,772.351074 2.582904,772.021301 
	C2.000000,758.624695 2.000000,745.249451 2.000000,730.937073 
z"/>
<path fill="#FF6E1D" opacity="1.000000" stroke="none" 
	d="
M12.010470,906.828491 
	C12.613749,904.764343 13.597142,903.553040 13.594893,902.343567 
	C13.563324,885.375305 13.479778,868.406006 13.212929,851.440002 
	C13.134785,846.471680 12.089095,841.513306 12.084684,836.549866 
	C12.011573,754.277527 11.871759,672.004639 12.128959,589.733032 
	C12.211082,563.463806 13.330809,537.195923 14.112028,510.931519 
	C14.625940,493.653961 15.283326,476.379028 16.074640,459.112030 
	C16.469851,450.488251 17.465670,441.892181 17.867832,433.268555 
	C18.019974,430.006134 17.265697,426.701508 16.494022,422.718384 
	C16.728035,413.095215 17.444918,404.173218 18.032492,395.242706 
	C18.281498,391.458038 20.712973,390.549683 23.880039,389.713837 
	C36.431267,386.401245 48.914650,382.831635 62.863136,379.467926 
	C66.263031,378.707825 68.222961,377.837067 70.182892,376.966278 
	C71.019318,376.690308 71.855743,376.414337 73.718834,376.401794 
	C75.878006,376.003815 77.010521,375.342377 78.143036,374.680939 
	C78.996460,374.487823 79.849892,374.294739 81.939972,374.405792 
	C86.756920,374.104858 90.398209,373.741455 93.907722,372.855835 
	C118.773460,366.581024 143.600525,360.153076 168.461838,353.860535 
	C231.747864,337.842407 295.044983,321.868073 358.338379,305.878998 
	C419.370972,290.461060 480.405640,275.051483 541.437134,259.629272 
	C604.398926,243.719345 667.356140,227.791443 730.318665,211.884644 
	C793.934570,195.812805 857.556580,179.765259 921.172180,163.692169 
	C984.142151,147.782196 1047.103638,131.838821 1110.075684,115.937256 
	C1179.499023,98.406593 1248.933105,80.918846 1318.356812,63.389942 
	C1376.161865,48.794655 1433.969116,34.208229 1491.733887,19.455406 
	C1495.377441,18.524868 1498.661133,16.184286 1502.112183,14.499669 
	C1502.978271,14.366100 1503.844482,14.232547 1505.731201,14.397191 
	C1507.882690,14.024391 1509.013550,13.353393 1510.144531,12.682401 
	C1511.007202,12.519891 1511.869995,12.357373 1513.755005,12.490023 
	C1515.913330,12.178500 1517.049316,11.571809 1518.185303,10.965138 
	C1530.075073,8.540123 1541.964844,6.115087 1554.689209,3.674447 
	C1556.352295,7.789177 1557.862305,11.913735 1557.897339,16.050793 
	C1558.111572,41.341427 1557.991333,66.634895 1557.149902,93.000740 
	C1550.206055,95.109840 1543.895508,95.492134 1538.014893,97.284828 
	C1491.248413,111.541626 1476.632568,170.777832 1511.177368,205.331863 
	C1524.109131,218.266846 1539.931885,224.065628 1557.919067,224.736069 
	C1557.949219,360.625916 1557.995850,496.515747 1558.002808,632.405579 
	C1558.006104,698.018738 1557.934692,763.631958 1556.966797,830.123352 
	C1532.858154,831.001587 1509.679810,831.001587 1485.665649,831.001587 
	C1485.665649,836.384766 1485.665527,840.323242 1485.665649,844.261658 
	C1485.666016,1070.527466 1485.664185,1296.793213 1485.685303,1523.059082 
	C1485.685669,1527.380249 1485.958984,1531.701294 1485.957520,1536.558960 
	C1486.307739,1537.674316 1486.805420,1538.253174 1487.303223,1538.832031 
	C1488.016113,1537.844482 1488.729126,1536.856934 1489.750244,1535.666504 
	C1490.058350,1535.463501 1490.251953,1534.751343 1490.864014,1534.418945 
	C1494.442993,1530.524414 1497.422729,1526.972900 1500.374146,1523.398071 
	C1518.921631,1500.933594 1537.462646,1478.463745 1556.005859,1455.995605 
	C1556.673584,1459.837402 1557.887939,1463.674805 1557.919189,1467.521729 
	C1558.102661,1490.079712 1557.937500,1512.640381 1558.078979,1535.198853 
	C1558.103394,1539.091309 1559.033325,1542.978149 1559.823486,1548.146729 
	C1558.919556,1551.035767 1557.806763,1552.702881 1556.544312,1554.247559 
	C1494.332031,1630.364868 1432.100952,1706.466919 1369.925537,1782.614502 
	C1368.679321,1784.140625 1368.061157,1786.179321 1366.829468,1788.611938 
	C1274.965210,1698.272949 1185.049072,1609.849731 1094.563965,1520.867065 
	C869.710266,1776.012329 645.650085,2030.255371 421.615112,2284.520264 
	C420.325439,2285.984131 419.372131,2287.747803 418.300537,2289.396729 
	C418.137665,2289.647217 418.074921,2290.075195 418.170013,2290.350586 
	C418.267151,2290.632080 418.615387,2290.827393 420.153839,2292.331055 
	C531.962524,2197.222168 643.799072,2101.854248 755.692627,2006.553955 
	C868.043396,1910.864380 980.384521,1815.163452 1093.251221,1719.023560 
	C1186.750366,1810.966675 1279.770996,1902.439331 1373.129883,1994.244507 
	C1375.923828,1990.997437 1378.135864,1988.536743 1380.228516,1985.978394 
	C1416.098267,1942.129639 1451.914673,1898.237305 1487.825317,1854.421997 
	C1510.415039,1826.859985 1533.140869,1799.409546 1555.805664,1771.909058 
	C1556.530029,1774.410889 1557.604980,1776.873535 1557.891235,1779.424438 
	C1558.260742,1782.716187 1558.008179,1786.078735 1558.008301,1789.410767 
	C1558.009644,2328.544678 1558.013062,2867.678467 1557.962280,3406.812256 
	C1557.961792,3412.089355 1557.245361,3417.366211 1556.406250,3423.337891 
	C1489.985229,3400.929932 1425.434448,3374.319336 1361.934204,3345.184326 
	C1289.056885,3311.746582 1217.816040,3275.125244 1148.666382,3234.467773 
	C1074.000854,3190.567627 1002.141785,3142.496582 933.336731,3089.899658 
	C892.106201,3058.381348 851.820618,3025.666992 813.627686,2990.500488 
	C784.251404,2963.451660 754.668030,2936.554688 726.552795,2908.224854 
	C670.530884,2851.775146 618.021118,2792.165039 569.015625,2729.445068 
	C527.604980,2676.445801 488.891846,2621.584229 452.552917,2565.036621 
	C419.087463,2512.960205 388.351105,2459.265137 359.016876,2404.765625 
	C327.759369,2346.692871 298.637299,2287.550537 273.709961,2226.495850 
	C253.478882,2176.943848 234.255936,2126.953369 215.767960,2076.722412 
	C190.379822,2007.744019 168.844162,1937.495117 149.271515,1866.643311 
	C131.665817,1802.911743 115.726898,1738.765625 102.464478,1674.000122 
	C92.276802,1624.249756 82.456146,1574.395752 73.963531,1524.334717 
	C65.542732,1474.697144 58.541172,1424.803711 51.757011,1374.908325 
	C46.394344,1335.467529 42.072334,1295.879150 37.727909,1256.307983 
	C34.659004,1228.355103 32.105518,1200.340088 29.726971,1172.318481 
	C27.426317,1145.214722 25.550306,1118.073608 23.663879,1090.936646 
	C22.190781,1069.745361 21.070602,1048.529907 19.642881,1027.335327 
	C17.902292,1001.496033 15.982081,975.668884 14.196788,949.832520 
	C13.921723,945.851746 13.953149,941.849854 14.286001,936.312134 
	C15.774875,928.884460 18.423584,922.766418 12.254172,917.945923 
	C12.146876,914.524658 12.039580,911.103394 12.010470,906.828491 
M405.102631,2305.978516 
	C405.623932,2305.639404 405.932068,2305.162354 406.970306,2304.003174 
	C407.412689,2303.444824 407.855072,2302.886719 409.515961,2301.878418 
	C412.334869,2299.246338 415.153778,2296.614014 419.031616,2292.093262 
	C417.899109,2291.944580 416.766602,2291.796143 414.458099,2292.159668 
	C412.009766,2295.072510 409.561432,2297.985596 406.437622,2301.317139 
	C406.437622,2301.317139 405.872345,2301.879395 404.918427,2302.459473 
	C404.361389,2303.410889 403.804352,2304.362305 402.858978,2305.866699 
	C403.343628,2306.027832 403.828278,2306.188965 405.102631,2305.978516 
M1398.079590,1126.046753 
	C1308.565552,1126.118042 1219.051392,1126.188721 1129.537354,1126.286377 
	C1129.282227,1126.286743 1129.022217,1126.675171 1128.774292,1126.893555 
	C1128.528198,1127.110352 1128.294800,1127.341553 1127.665771,1127.933228 
	C1127.665771,1130.219482 1127.665771,1132.872559 1127.665771,1135.525635 
	C1127.666016,1238.022705 1127.662354,1340.519897 1127.685791,1443.016968 
	C1127.686523,1446.000000 1127.975952,1448.982910 1128.056519,1453.341187 
	C1137.644775,1463.038330 1147.124634,1472.845337 1156.838623,1482.414673 
	C1224.504272,1549.072388 1292.213623,1615.685547 1359.943115,1682.278320 
	C1361.721924,1684.027344 1363.890137,1685.380493 1366.328735,1687.268066 
	C1376.105347,1675.340942 1385.089844,1663.772705 1394.768311,1652.817505 
	C1399.957275,1646.943604 1401.999634,1640.920654 1401.989746,1633.048462 
	C1401.785889,1469.727905 1401.838135,1306.406860 1401.824829,1143.085938 
	C1401.824463,1139.423950 1401.651611,1135.762085 1401.944458,1130.736816 
	C1401.273438,1129.255005 1400.602295,1127.773315 1398.079590,1126.046753 
M1309.295288,274.341675 
	C1327.335449,257.496338 1333.955200,236.589050 1329.308960,212.727509 
	C1322.043457,175.414276 1283.591919,152.835388 1247.104492,163.664841 
	C1210.485718,174.533264 1190.958130,214.045044 1204.909180,249.608521 
	C1221.916138,292.962341 1275.403564,303.834930 1309.295288,274.341675 
z"/>
<path fill="#FFFEFE" opacity="1.000000" stroke="none" 
	d="
M1556.008057,1771.262451 
	C1533.140869,1799.409546 1510.415039,1826.859985 1487.825317,1854.421997 
	C1451.914673,1898.237305 1416.098267,1942.129639 1380.228516,1985.978394 
	C1378.135864,1988.536743 1375.923828,1990.997437 1373.129883,1994.244507 
	C1279.770996,1902.439331 1186.750366,1810.966675 1093.251221,1719.023560 
	C980.384521,1815.163452 868.043396,1910.864380 755.692627,2006.553955 
	C643.799072,2101.854248 531.962524,2197.222168 420.153839,2292.331055 
	C418.615387,2290.827393 418.267151,2290.632080 418.170013,2290.350586 
	C418.074921,2290.075195 418.137665,2289.647217 418.300537,2289.396729 
	C419.372131,2287.747803 420.325439,2285.984131 421.615112,2284.520264 
	C645.650085,2030.255371 869.710266,1776.012329 1094.563965,1520.867065 
	C1185.049072,1609.849731 1274.965210,1698.272949 1366.829468,1788.611938 
	C1368.061157,1786.179321 1368.679321,1784.140625 1369.925537,1782.614502 
	C1432.100952,1706.466919 1494.332031,1630.364868 1556.544312,1554.247559 
	C1557.806763,1552.702881 1558.919556,1551.035767 1560.382690,1548.787476 
	C1563.134277,1545.484741 1565.756714,1542.944336 1568.053833,1540.137573 
	C1613.437012,1484.686035 1658.779785,1429.201294 1704.144165,1373.734253 
	C1706.239258,1371.172607 1708.458984,1368.712891 1711.460815,1365.231201 
	C1817.518066,1498.997314 1923.186401,1632.273071 2029.626465,1766.522095 
	C2231.499756,1548.787231 2432.613770,1331.871338 2634.580078,1114.036011 
	C2608.153564,1094.362427 2582.364502,1075.163452 2555.308838,1055.021606 
	C2652.025635,1014.296143 2747.275635,974.188171 2844.328369,933.321167 
	C2843.133789,944.138672 2842.488281,953.490417 2840.998779,962.705872 
	C2838.298584,979.414429 2834.775146,995.992126 2832.189697,1012.716431 
	C2829.409180,1030.701172 2827.646729,1048.843750 2824.836426,1066.823242 
	C2820.884521,1092.106079 2816.125488,1117.262939 2812.186523,1142.547485 
	C2809.063232,1162.595337 2806.830811,1182.780518 2803.858643,1202.853760 
	C2802.138184,1214.475830 2799.736328,1225.997192 2797.296875,1239.462891 
	C2773.072266,1220.057739 2750.085938,1201.644531 2726.365479,1182.643066 
	C2493.244385,1449.533447 2260.718018,1715.743286 2027.510864,1982.732300 
	C1921.635864,1849.188477 1816.514648,1716.595337 1711.685059,1584.370117 
	C1710.685059,1584.284424 1710.363159,1584.221069 1710.046021,1584.239502 
	C1709.725586,1584.258179 1709.298462,1584.248169 1709.109985,1584.439575 
	C1707.714722,1585.857056 1706.275513,1587.246460 1705.018311,1588.782227 
	C1655.404541,1649.384399 1605.808716,1710.001221 1556.008057,1771.262451 
z"/>
<path fill="#EFEFEF" opacity="1.000000" stroke="none" 
	d="
M2117.291992,599.873474 
	C2117.472412,603.857300 2117.810059,607.841064 2117.810303,611.824890 
	C2117.834717,928.063965 2117.806885,1244.303101 2117.982666,1560.541992 
	C2117.987061,1568.431641 2115.917480,1574.254150 2110.445557,1580.026733 
	C2085.691406,1606.141724 2061.381348,1632.677612 2036.888184,1659.040527 
	C2034.675903,1661.421631 2032.298340,1663.649536 2029.619751,1666.326172 
	C2027.169556,1663.491455 2025.166748,1661.339600 2023.345581,1659.043579 
	C1965.369141,1585.947754 1907.404297,1512.842651 1849.466675,1439.716064 
	C1846.627075,1436.132080 1842.809326,1432.919556 1844.340332,1426.192749 
	C1846.228516,1421.438477 1847.666138,1418.063599 1848.794678,1414.588379 
	C1863.817505,1368.328247 1878.787109,1322.051025 1893.789307,1275.784180 
	C1910.230225,1225.079468 1926.697021,1174.383423 1943.140869,1123.679688 
	C1958.762451,1075.511841 1974.360229,1027.336182 1989.984009,979.169067 
	C2006.738892,927.515320 2023.462280,875.851318 2040.292236,824.222046 
	C2054.025635,782.092041 2067.899658,740.007935 2081.695557,697.898254 
	C2082.524658,695.367310 2083.156738,692.772156 2083.970459,690.235718 
	C2092.924805,662.322266 2101.894287,634.413574 2110.869629,606.506714 
	C2111.915771,603.254150 2113.103760,600.101318 2117.291992,599.873474 
z"/>
<path fill="#FFFFFF" opacity="1.000000" stroke="none" 
	d="
M2117.440674,599.004211 
	C2113.103760,600.101318 2111.915771,603.254150 2110.869629,606.506714 
	C2101.894287,634.413574 2092.924805,662.322266 2083.970459,690.235718 
	C2083.156738,692.772156 2082.524658,695.367310 2081.695557,697.898254 
	C2067.899658,740.007935 2054.025635,782.092041 2040.292236,824.222046 
	C2023.462280,875.851318 2006.738892,927.515320 1989.984009,979.169067 
	C1974.360229,1027.336182 1958.762451,1075.511841 1943.140869,1123.679688 
	C1926.697021,1174.383423 1910.230225,1225.079468 1893.789307,1275.784180 
	C1878.787109,1322.051025 1863.817505,1368.328247 1848.794678,1414.588379 
	C1847.666138,1418.063599 1846.228516,1421.438477 1844.511719,1425.431030 
	C1843.949219,1422.013916 1843.687988,1418.025879 1843.687744,1414.037720 
	C1843.667603,1142.556641 1843.668701,871.075500 1843.667847,599.594421 
	C1843.667725,595.673706 1843.667725,591.753052 1843.667725,587.227905 
	C1935.209473,587.227905 2025.658081,587.227905 2117.589355,587.227905 
	C2117.589355,591.110046 2117.589355,594.622498 2117.440674,599.004211 
z"/>
<path fill="#FFFFFF" opacity="1.000000" stroke="none" 
	d="
M1486.104980,1536.022461 
	C1485.958984,1531.701294 1485.685669,1527.380249 1485.685303,1523.059082 
	C1485.664185,1296.793213 1485.666016,1070.527466 1485.665649,844.261658 
	C1485.665527,840.323242 1485.665649,836.384766 1485.665649,831.001587 
	C1509.679810,831.001587 1532.858154,831.001587 1556.966309,830.997681 
	C1619.717529,831.013611 1681.538696,831.030151 1743.359985,831.060486 
	C1747.679321,831.062622 1751.998657,831.167480 1757.335327,831.910950 
	C1758.582764,833.204041 1758.951294,833.709900 1759.458130,834.114990 
	C1759.501099,836.185669 1759.544067,838.256287 1758.768555,841.201294 
	C1752.720825,844.008606 1752.315186,849.253967 1750.706421,853.362732 
	C1741.363892,877.224243 1732.406860,901.236328 1723.190063,925.147461 
	C1697.215088,992.533447 1671.162964,1059.889771 1645.167725,1127.268066 
	C1620.490723,1191.229980 1595.905029,1255.227417 1571.172607,1319.168091 
	C1546.439819,1383.109619 1521.495605,1446.969482 1496.873413,1510.953369 
	C1493.929810,1518.602661 1492.424072,1526.805176 1490.251953,1534.751343 
	C1490.251953,1534.751343 1490.058350,1535.463501 1489.192383,1535.666748 
	C1487.585938,1535.920776 1486.845459,1535.971558 1486.104980,1536.022461 
z"/>
<path fill="#EFEFEF" opacity="1.000000" stroke="none" 
	d="
M1490.864014,1534.418945 
	C1492.424072,1526.805176 1493.929810,1518.602661 1496.873413,1510.953369 
	C1521.495605,1446.969482 1546.439819,1383.109619 1571.172607,1319.168091 
	C1595.905029,1255.227417 1620.490723,1191.229980 1645.167725,1127.268066 
	C1671.162964,1059.889771 1697.215088,992.533447 1723.190063,925.147461 
	C1732.406860,901.236328 1741.363892,877.224243 1750.706421,853.362732 
	C1752.315186,849.253967 1752.720825,844.008606 1758.622925,841.965454 
	C1759.473999,844.170044 1759.807861,846.484863 1759.807983,848.799622 
	C1759.809082,1005.879761 1759.783447,1162.959839 1759.130981,1320.930542 
	C1757.798462,1321.843018 1757.094849,1321.864868 1756.391357,1321.886841 
	C1741.598755,1303.478149 1726.806152,1285.069458 1711.215698,1265.667969 
	C1659.261108,1329.124756 1607.845703,1391.922974 1556.218018,1455.358398 
	C1537.462646,1478.463745 1518.921631,1500.933594 1500.374146,1523.398071 
	C1497.422729,1526.972900 1494.442993,1530.524414 1490.864014,1534.418945 
z"/>
<path fill="#FFFEFD" opacity="1.000000" stroke="none" 
	d="
M1558.770996,224.552750 
	C1539.931885,224.065628 1524.109131,218.266846 1511.177368,205.331863 
	C1476.632568,170.777832 1491.248413,111.541626 1538.014893,97.284828 
	C1543.895508,95.492134 1550.206055,95.109840 1557.136963,93.923767 
	C1560.793091,94.508194 1563.593384,95.664490 1566.471802,95.912468 
	C1595.494507,98.412521 1619.579834,123.286026 1622.099731,152.898087 
	C1625.595459,193.977066 1593.563965,223.839096 1558.770996,224.552750 
z"/>
<path fill="#FFFEFE" opacity="1.000000" stroke="none" 
	d="
M1789.562622,278.525208 
	C1751.088867,250.008606 1754.644409,189.258621 1800.052002,167.269531 
	C1824.624146,155.370224 1854.373901,160.478836 1873.848389,179.723557 
	C1893.724731,199.365387 1898.919312,229.154236 1886.845825,254.257889 
	C1874.923218,279.047394 1848.828857,293.505554 1821.491333,290.708679 
	C1809.955933,289.528503 1799.563599,285.611053 1789.562622,278.525208 
z"/>
<path fill="#F2DACE" opacity="1.000000" stroke="none" 
	d="
M1756.541992,1322.348389 
	C1757.094849,1321.864868 1757.798462,1321.843018 1759.029053,1321.855835 
	C1759.358398,1322.739380 1759.160400,1323.588013 1758.962524,1324.436768 
	C1758.205933,1323.894531 1757.449219,1323.352295 1756.541992,1322.348389 
z"/>
<path fill="#F2DACE" opacity="1.000000" stroke="none" 
	d="
M1759.556885,833.579834 
	C1758.951294,833.709900 1758.582764,833.204041 1758.262329,832.131531 
	C1758.666504,832.125366 1759.161133,832.585022 1759.556885,833.579834 
z"/>
<path fill="#FF8142" opacity="1.000000" stroke="none" 
	d="
M12.102743,918.809082 
	C18.423584,922.766418 15.774875,928.884460 14.281940,935.411011 
	C13.206909,930.594360 12.579112,925.133301 12.102743,918.809082 
z"/>
<path fill="#FF8548" opacity="1.000000" stroke="none" 
	d="
M1501.307739,14.458027 
	C1498.661133,16.184286 1495.377441,18.524868 1491.733887,19.455406 
	C1433.969116,34.208229 1376.161865,48.794655 1318.356812,63.389942 
	C1248.933105,80.918846 1179.499023,98.406593 1110.075684,115.937256 
	C1047.103638,131.838821 984.142151,147.782196 921.172180,163.692169 
	C857.556580,179.765259 793.934570,195.812805 730.318665,211.884644 
	C667.356140,227.791443 604.398926,243.719345 541.437134,259.629272 
	C480.405640,275.051483 419.370972,290.461060 358.338379,305.878998 
	C295.044983,321.868073 231.747864,337.842407 168.461838,353.860535 
	C143.600525,360.153076 118.773460,366.581024 93.907722,372.855835 
	C90.398209,373.741455 86.756920,374.104858 82.601395,374.407776 
	C88.291519,372.065338 94.482307,369.750488 100.833443,368.026245 
	C190.353912,343.722809 279.805267,319.157379 369.456787,295.345978 
	C475.523163,267.174774 581.733826,239.544342 687.945862,211.925278 
	C752.325745,195.184143 816.784546,178.741302 881.284546,162.468369 
	C952.243225,144.565964 1023.171936,126.521027 1094.325928,109.421486 
	C1201.043213,83.775452 1307.931274,58.837730 1414.779175,33.736969 
	C1443.293213,27.038481 1471.925415,20.842859 1501.307739,14.458027 
z"/>
<path fill="#FF8548" opacity="1.000000" stroke="none" 
	d="
M69.532593,376.996887 
	C68.222961,377.837067 66.263031,378.707825 63.611343,379.460999 
	C64.907150,378.571411 66.894714,377.799438 69.532593,376.996887 
z"/>
<path fill="#FF8548" opacity="1.000000" stroke="none" 
	d="
M1509.572998,12.664667 
	C1509.013550,13.353393 1507.882690,14.024391 1506.390381,14.407975 
	C1507.019775,13.629354 1508.010620,13.138148 1509.572998,12.664667 
z"/>
<path fill="#FF8548" opacity="1.000000" stroke="none" 
	d="
M77.572678,374.663147 
	C77.010521,375.342377 75.878006,376.003815 74.384933,376.381470 
	C75.017021,375.613586 76.009666,375.129456 77.572678,374.663147 
z"/>
<path fill="#FF8548" opacity="1.000000" stroke="none" 
	d="
M1517.628540,10.971645 
	C1517.049316,11.571809 1515.913330,12.178500 1514.419189,12.517100 
	C1515.064575,11.825397 1516.068115,11.401785 1517.628540,10.971645 
z"/>
<path fill="#EFEFEF" opacity="1.000000" stroke="none" 
	d="
M1401.559204,1132.100098 
	C1401.651611,1135.762085 1401.824463,1139.423950 1401.824829,1143.085938 
	C1401.838135,1306.406860 1401.785889,1469.727905 1401.989746,1633.048462 
	C1401.999634,1640.920654 1399.957275,1646.943604 1394.768311,1652.817505 
	C1385.089844,1663.772705 1376.105347,1675.340942 1366.328735,1687.268066 
	C1363.890137,1685.380493 1361.721924,1684.027344 1359.943115,1682.278320 
	C1292.213623,1615.685547 1224.504272,1549.072388 1156.838623,1482.414673 
	C1147.124634,1472.845337 1137.644775,1463.038330 1128.643799,1452.286133 
	C1132.495728,1447.479004 1135.809692,1443.768555 1139.016602,1439.967896 
	C1154.451904,1421.675415 1169.899292,1403.393066 1185.264282,1385.041504 
	C1204.255249,1362.359131 1223.145630,1339.592773 1242.123901,1316.899780 
	C1257.052856,1299.048584 1272.076538,1281.276733 1287.007446,1263.427246 
	C1302.788818,1244.561523 1318.515869,1225.650269 1334.256104,1206.750122 
	C1349.784546,1188.104248 1365.011353,1169.195435 1380.972778,1150.928223 
	C1386.753784,1144.312012 1390.995361,1135.950317 1400.053467,1132.030029 
	C1400.889160,1132.084595 1401.224121,1132.092407 1401.559204,1132.100098 
z"/>
<path fill="#FFFFFF" opacity="1.000000" stroke="none" 
	d="
M1399.552979,1131.983398 
	C1390.995361,1135.950317 1386.753784,1144.312012 1380.972778,1150.928223 
	C1365.011353,1169.195435 1349.784546,1188.104248 1334.256104,1206.750122 
	C1318.515869,1225.650269 1302.788818,1244.561523 1287.007446,1263.427246 
	C1272.076538,1281.276733 1257.052856,1299.048584 1242.123901,1316.899780 
	C1223.145630,1339.592773 1204.255249,1362.359131 1185.264282,1385.041504 
	C1169.899292,1403.393066 1154.451904,1421.675415 1139.016602,1439.967896 
	C1135.809692,1443.768555 1132.495728,1447.479004 1128.680908,1451.598511 
	C1127.975952,1448.982910 1127.686523,1446.000000 1127.685791,1443.016968 
	C1127.662354,1340.519897 1127.666016,1238.022705 1127.665771,1135.525635 
	C1127.665771,1132.872559 1127.665771,1130.219482 1127.665771,1127.933228 
	C1128.294800,1127.341553 1128.528198,1127.110352 1128.774292,1126.893555 
	C1129.022217,1126.675171 1129.282227,1126.286743 1129.537354,1126.286377 
	C1219.051392,1126.188721 1308.565552,1126.118042 1399.004395,1126.882812 
	C1399.803833,1129.140259 1399.678467,1130.561890 1399.552979,1131.983398 
z"/>
<path fill="#FFFEFE" opacity="1.000000" stroke="none" 
	d="
M1308.771484,274.823792 
	C1275.403564,303.834930 1221.916138,292.962341 1204.909180,249.608521 
	C1190.958130,214.045044 1210.485718,174.533264 1247.104492,163.664841 
	C1283.591919,152.835388 1322.043457,175.414276 1329.308960,212.727509 
	C1333.955200,236.589050 1327.335449,257.496338 1308.771484,274.823792 
z"/>
<path fill="#FFCFB7" opacity="1.000000" stroke="none" 
	d="
M417.972687,2293.981934 
	C415.153778,2296.614014 412.334869,2299.246338 408.612854,2301.744141 
	C407.709717,2301.609619 407.113159,2300.898438 407.113159,2300.898438 
	C409.561432,2297.985596 412.009766,2295.072510 415.370911,2292.355957 
	C416.846680,2293.029053 417.409668,2293.505371 417.972687,2293.981934 
z"/>
<path fill="#F2D7C8" opacity="1.000000" stroke="none" 
	d="
M1400.053589,1132.030029 
	C1399.678467,1130.561890 1399.803833,1129.140259 1399.930176,1127.005127 
	C1400.602295,1127.773315 1401.273438,1129.255005 1401.751831,1131.418457 
	C1401.224121,1132.092407 1400.889160,1132.084595 1400.053589,1132.030029 
z"/>
<path fill="#EFEFEF" opacity="1.000000" stroke="none" 
	d="
M1485.957520,1536.558960 
	C1486.845459,1535.971558 1487.585938,1535.920776 1488.884277,1535.869629 
	C1488.729126,1536.856934 1488.016113,1537.844482 1487.303223,1538.832031 
	C1486.805420,1538.253174 1486.307739,1537.674316 1485.957520,1536.558960 
z"/>
<path fill="#FFA070" opacity="1.000000" stroke="none" 
	d="
M406.027039,2304.547852 
	C405.932068,2305.162354 405.623932,2305.639404 404.443481,2305.903320 
	C403.784302,2305.827881 403.247345,2305.313721 403.247314,2305.313721 
	C403.804352,2304.362305 404.361389,2303.410889 405.437622,2302.836426 
	C405.980255,2303.658203 406.003632,2304.103027 406.027039,2304.547852 
z"/>
<path fill="#FFFEFE" opacity="1.000000" stroke="none" 
	d="
M418.502136,2293.037598 
	C417.409668,2293.505371 416.846680,2293.029053 415.958893,2292.100098 
	C416.766602,2291.796143 417.899109,2291.944580 418.502136,2293.037598 
z"/>
<path fill="#FFCFB7" opacity="1.000000" stroke="none" 
	d="
M406.498657,2304.275391 
	C406.003632,2304.103027 405.980255,2303.658203 405.914612,2302.546387 
	C405.872345,2301.879395 406.437622,2301.317139 406.775391,2301.107910 
	C407.113159,2300.898438 407.709717,2301.609619 408.003571,2301.968994 
	C407.855072,2302.886719 407.412689,2303.444824 406.498657,2304.275391 
z"/>
<path fill="#FFA070" opacity="1.000000" stroke="none" 
	d="
M404.048615,2306.088867 
	C403.828278,2306.188965 403.343628,2306.027832 403.053162,2305.590332 
	C403.247345,2305.313721 403.784302,2305.827881 404.048615,2306.088867 
z"/>
</svg>