<svg width="200" height="200" viewBox="0 0 200 200" xmlns="http://www.w3.org/2000/svg">
  <!-- Shield shape with orange border -->
  <path d="M 100 30 L 150 50 L 150 100 Q 150 140, 100 170 Q 50 140, 50 100 L 50 50 Z"
        fill="white" stroke="#ff8c42" stroke-width="2"/>

  <!-- Rising chart inside shield -->
  <g>
    <!-- Chart bars -->
    <rect x="70" y="100" width="12" height="40" fill="#ff8c42" rx="2"/>
    <rect x="88" y="85" width="12" height="55" fill="#ff9a58" rx="2"/>
    <rect x="106" y="70" width="12" height="70" fill="#ffa066" rx="2"/>
    <rect x="124" y="55" width="12" height="85" fill="#ffb080" rx="2"/>
  </g>

  <!-- Upward trend line / growth arrow with zigzag -->
  <polyline points="60,135 76,110 88,125 106,85 118,100 135,60"
            stroke="#ff8c42" stroke-width="3.5" fill="none"
            stroke-linecap="round" stroke-linejoin="round"/>

  <!-- Arrow head -->
  <polygon points="135,60 140,66 131,64" fill="#ff8c42"/>

  <!-- Community dots at top -->
  <g>
    <circle cx="85" cy="50" r="4" fill="#ff8c42"/>
    <circle cx="100" cy="45" r="4" fill="#ff8c42"/>
    <circle cx="115" cy="50" r="4" fill="#ff8c42"/>
  </g>
</svg>
